# This file uses centimeters as units for non-parametric coordinates.
# UVs by headus UVLayout v2.08.00 2012/05/02 06:40:44

g default
v 1.308391 -4.021448 3.079539
v 1.716005 -4.028703 3.079539
v -2.300049 0.043898 3.079539
v -1.885904 0.403344 3.079539
v -2.300049 0.043898 2.531162
v -1.885904 0.403344 2.531162
v 1.308391 -4.021448 2.531162
v 1.716005 -4.028703 2.531162
v -1.264911 -0.312148 3.079539
v -1.679055 -0.671594 3.079539
v -1.679055 -0.671594 2.531162
v -1.264911 -0.312148 2.531162
v -0.923705 -0.705276 3.079539
v -1.337849 -1.064722 3.079539
v -1.337849 -1.064722 2.531162
v -0.923705 -0.705276 2.531162
v -4.301167 -3.910475 3.079539
v -4.301167 -3.910475 2.531162
v -4.649262 -3.904272 3.079539
v -4.649262 -3.904272 2.531162
v -0.221339 -0.095674 2.531162
v -0.221339 -0.095674 3.079539
v -0.562544 0.297454 2.531162
v -0.562544 0.297454 3.079539
g tweakSet5
v -1.418845 0.131194 -3.996883
v -1.098106 -0.086733 -3.996883
v -1.200919 0.451933 -3.996883
v -0.880180 0.234006 -3.996883
v -1.200919 0.451933 -3.554347
v -0.880180 0.234006 -3.554347
v -1.418845 0.131194 -3.554347
v -1.098106 -0.086733 -3.554347
v -0.652695 1.258794 -3.996883
v -0.331956 1.040867 -3.996883
v -0.331956 1.040867 -3.554347
v -0.652695 1.258794 -3.554347
v -1.967069 -0.675667 -3.554347
v -1.646330 -0.893594 -3.554347
v -1.646330 -0.893594 -3.996883
v -1.967069 -0.675667 -3.996883
v -0.291245 -0.634956 -3.554347
v -0.291245 -0.634956 -3.996883
v -0.073318 -0.314217 -3.554347
v -0.073318 -0.314217 -3.996883
v -2.225707 0.679417 -3.554347
v -2.225707 0.679417 -3.996883
v -2.007780 1.000156 -3.996883
v -2.007780 1.000156 -3.554347
v -1.418845 0.131194 4.273643
v -1.098106 -0.086733 4.273643
v -1.200919 0.451933 4.273643
v -0.880180 0.234006 4.273643
v -1.200919 0.451933 3.831368
v -0.880180 0.234006 3.831368
v -1.418845 0.131194 3.831368
v -1.098106 -0.086733 3.831368
v -0.652695 1.258794 4.273643
v -0.331956 1.040867 4.273643
v -0.331956 1.040867 3.831368
v -0.652695 1.258794 3.831368
v -1.967069 -0.675667 3.831368
v -1.646330 -0.893594 3.831368
v -1.646330 -0.893594 4.273643
v -1.967069 -0.675667 4.273643
v -0.291245 -0.634956 3.831368
v -0.291245 -0.634956 4.273643
v -0.073318 -0.314217 3.831368
v -0.073318 -0.314217 4.273643
v -2.225707 0.679417 3.831368
v -2.225707 0.679417 4.273643
v -2.007780 1.000156 4.273643
v -2.007780 1.000156 3.831368
# 158 texture coords
vt 0.849106 0.158567
vt 0.820762 0.136536
vt 0.817620 0.175538
vt 0.789256 0.153747
vt 0.818703 0.582929
vt 0.790123 0.561323
vt 0.850013 0.565515
vt 0.821433 0.543907
vt 0.233516 0.570867
vt 0.276501 0.608895
vt 0.198993 0.613555
vt 0.241075 0.630806
vt 0.994581 0.821365
vt 0.994581 0.854143
vt 0.370262 0.854143
vt 0.370262 0.821365
vt 0.994581 0.788587
vt 0.370262 0.788587
vt 0.994581 0.755810
vt 0.370262 0.755810
vt 0.370262 0.723032
vt 0.994581 0.723032
vt 0.822063 0.534893
vt 0.830036 0.455420
vt 0.864978 0.467895
vt 0.788896 0.462571
vt 0.825235 0.455083
vt 0.905784 0.455214
vt 0.881774 0.488943
vt 0.890472 0.568347
vt 0.749662 0.558492
vt 0.769334 0.481076
vt 0.750254 0.444332
vt 0.985109 0.432793
vt 0.994366 0.464224
vt 0.870794 0.645765
vt 0.758363 0.637895
vt 0.661282 0.440914
vt 0.674827 0.411079
vt 0.818071 0.591941
vt 0.810103 0.671416
vt 0.775160 0.658943
vt 0.734354 0.671625
vt 0.889871 0.682510
vt 0.851229 0.664267
vt 0.814889 0.671751
vt 0.655032 0.694050
vt 0.645772 0.662619
vt 0.978843 0.685931
vt 0.965297 0.715766
vt 0.882055 0.082511
vt 0.889542 0.162033
vt 0.868652 0.239137
vt 0.821508 0.127261
vt 0.830903 0.048080
vt 0.865616 0.061195
vt 0.906633 0.049161
vt 0.788543 0.054987
vt 0.824908 0.047598
vt 0.995058 0.059576
vt 0.986302 0.028002
vt 0.887189 0.276169
vt 0.848799 0.257329
vt 0.812298 0.264169
vt 0.816914 0.184303
vt 0.808688 0.263879
vt 0.773753 0.251285
vt 0.732842 0.263738
vt 0.757067 0.230150
vt 0.748787 0.150696
vt 0.768905 0.073396
vt 0.749979 0.036544
vt 0.962111 0.310550
vt 0.976103 0.280920
vt 0.644315 0.254196
vt 0.653383 0.285683
vt 0.674720 0.002915
vt 0.661027 0.032682
vt 0.158427 0.978564
vt 0.113181 0.974011
vt 0.153984 0.625439
vt 0.110188 0.568890
vt 0.144181 0.542819
vt 0.178815 0.995612
vt 0.240216 0.989471
vt 0.241004 0.635809
vt 0.150367 0.486343
vt 0.173951 0.532922
vt 0.228981 0.509788
vt 0.341030 0.982632
vt 0.317581 0.989471
vt 0.259864 0.990700
vt 0.224862 0.453282
vt 0.188778 0.414604
vt 0.287575 0.523839
vt 0.306531 0.474205
vt 0.320756 0.530011
vt 0.358491 0.551419
vt 0.322854 0.616169
vt 0.385971 0.975013
vt 0.256233 0.407986
vt 0.002915 0.098455
vt 0.037135 0.101638
vt 0.221364 0.383307
vt 0.347326 0.057643
vt 0.375181 0.048627
vt 0.003166 0.051652
vt 0.037604 0.052487
vt 0.337433 0.009202
vt 0.366172 0.002915
vt 0.736344 0.068830
vt 0.724201 0.229770
vt 0.901155 0.244022
vt 0.914928 0.083213
vt 0.736776 0.476686
vt 0.725512 0.637708
vt 0.914624 0.489131
vt 0.903350 0.650156
vt 0.259241 0.491011
vt 0.197250 0.495670
vt 0.158427 0.978564
vt 0.113181 0.974011
vt 0.153984 0.625439
vt 0.198993 0.613555
vt 0.110188 0.568890
vt 0.144181 0.542819
vt 0.178815 0.995612
vt 0.241075 0.630806
vt 0.233516 0.570867
vt 0.173951 0.532922
vt 0.276501 0.608895
vt 0.240216 0.989471
vt 0.241004 0.635809
vt 0.150367 0.486343
vt 0.197250 0.495670
vt 0.228981 0.509788
vt 0.287575 0.523839
vt 0.320756 0.530011
vt 0.341030 0.982632
vt 0.317581 0.989471
vt 0.259864 0.990700
vt 0.188778 0.414604
vt 0.224862 0.453282
vt 0.259241 0.491011
vt 0.306531 0.474205
vt 0.322854 0.616169
vt 0.358491 0.551419
vt 0.385971 0.975013
vt 0.256233 0.407986
vt 0.221364 0.383307
vt 0.002915 0.098455
vt 0.037135 0.101638
vt 0.347326 0.057643
vt 0.375181 0.048627
vt 0.003166 0.051652
vt 0.037604 0.052487
vt 0.337433 0.009202
vt 0.366172 0.002915
vn 0.000001 0.000000 1.000000
vn 0.000001 0.000000 1.000000
vn 0.000000 0.000000 1.000000
vn 0.000000 0.000000 1.000000
vn -0.655473 0.755218 0.000000
vn -0.655473 0.755218 0.000000
vn -0.655473 0.755218 0.000000
vn -0.655473 0.755218 0.000000
vn 0.000000 0.000000 -1.000000
vn -0.000000 0.000000 -1.000000
vn 0.000000 0.000000 -1.000000
vn 0.000000 0.000000 -1.000000
vn -0.017796 -0.999842 0.000000
vn -0.017796 -0.999842 0.000000
vn -0.017796 -0.999842 0.000000
vn -0.017796 -0.999842 0.000000
vn 0.783051 0.621957 0.000000
vn 0.783051 0.621957 0.000000
vn 0.783051 0.621957 0.000000
vn 0.783051 0.621957 0.000000
vn -0.745147 -0.666900 0.000000
vn -0.745147 -0.666900 0.000000
vn -0.745147 -0.666900 0.000000
vn -0.745147 -0.666900 0.000000
vn -0.000000 0.000000 1.000000
vn -0.000000 0.000000 1.000000
vn 0.000000 0.000000 1.000000
vn 0.000000 0.000000 1.000000
vn -0.755219 -0.655473 0.000000
vn -0.755219 -0.655473 0.000000
vn -0.755219 -0.655473 0.000000
vn -0.755219 -0.655473 0.000000
vn 0.000000 0.000000 -1.000000
vn 0.000000 0.000000 -1.000000
vn -0.000000 0.000000 -1.000000
vn 0.000000 0.000000 -1.000000
vn 0.755219 0.655473 0.000000
vn 0.755219 0.655473 0.000000
vn 0.755219 0.655473 0.000000
vn 0.755219 0.655473 0.000000
vn -0.017817 -0.999841 0.000000
vn -0.017817 -0.999841 0.000000
vn -0.017817 -0.999841 0.000000
vn -0.017817 -0.999841 0.000000
vn 0.755218 0.655473 0.000000
vn 0.755218 0.655473 0.000000
vn 0.755218 0.655473 0.000000
vn 0.755218 0.655473 0.000000
vn 0.692654 -0.721270 0.000000
vn 0.692654 -0.721270 0.000000
vn 0.692654 -0.721270 0.000000
vn 0.692654 -0.721270 0.000000
vn 0.000000 0.000000 1.000000
vn 0.000000 0.000000 1.000000
vn -0.736368 0.676581 0.000000
vn -0.736368 0.676581 0.000000
vn -0.736368 0.676581 0.000000
vn -0.736368 0.676581 0.000000
vn 0.000000 0.000000 -1.000000
vn 0.000000 0.000000 -1.000000
vn 0.655473 -0.755218 0.000000
vn 0.655473 -0.755218 0.000000
vn 0.655473 -0.755218 0.000000
vn 0.655473 -0.755218 0.000000
vn -0.000000 0.000000 -1.000000
vn -0.000000 0.000000 -1.000000
vn -0.655473 0.755219 0.000000
vn -0.655473 0.755219 0.000000
vn -0.655473 0.755219 0.000000
vn -0.655473 0.755219 0.000000
vn 0.000000 0.000000 1.000000
vn 0.000000 0.000000 1.000000
vn -0.000000 0.000000 -1.000000
vn -0.000000 0.000000 -1.000000
vn 0.000000 0.000000 -1.000000
vn 0.000000 0.000000 -1.000000
vn 0.562000 0.827137 0.000000
vn 0.562000 0.827137 0.000000
vn 0.562000 0.827137 0.000000
vn 0.562000 0.827137 0.000000
vn -0.562000 -0.827137 0.000000
vn -0.562000 -0.827137 0.000000
vn -0.562000 -0.827137 0.000000
vn -0.562000 -0.827137 0.000000
vn 0.827137 -0.562000 0.000000
vn 0.827137 -0.562000 0.000000
vn 0.827137 -0.562000 0.000000
vn 0.827137 -0.562000 0.000000
vn -0.827137 0.562000 0.000000
vn -0.827137 0.562000 0.000000
vn -0.827137 0.562000 0.000000
vn -0.827137 0.562000 0.000000
vn -0.000000 0.000000 -1.000000
vn -0.000000 0.000000 -1.000000
vn 0.827137 -0.562000 0.000000
vn 0.827137 -0.562000 0.000000
vn 0.827137 -0.562000 0.000000
vn 0.827137 -0.562000 0.000000
vn 0.000000 0.000000 1.000000
vn 0.000000 0.000000 1.000000
vn 0.000000 0.000000 1.000000
vn 0.000000 0.000000 1.000000
vn -0.827137 0.562000 0.000000
vn -0.827137 0.562000 0.000000
vn -0.827137 0.562000 0.000000
vn -0.827137 0.562000 0.000000
vn 0.000000 0.000000 1.000000
vn 0.000000 0.000000 1.000000
vn 0.000000 0.000000 1.000000
vn 0.000000 0.000000 1.000000
vn 0.827137 -0.562000 0.000000
vn 0.827137 -0.562000 0.000000
vn 0.827137 -0.562000 0.000000
vn 0.827137 -0.562000 0.000000
vn 0.000000 0.000000 -1.000000
vn 0.000000 0.000000 -1.000000
vn -0.827137 0.562000 0.000000
vn -0.827137 0.562000 0.000000
vn -0.827137 0.562000 0.000000
vn -0.827137 0.562000 0.000000
vn -0.562000 -0.827137 0.000000
vn -0.562000 -0.827137 0.000000
vn -0.562000 -0.827137 0.000000
vn -0.562000 -0.827137 0.000000
vn 0.000000 0.000000 1.000000
vn 0.000000 0.000000 1.000000
vn 0.000000 0.000000 1.000000
vn 0.000000 0.000000 1.000000
vn 0.562000 0.827137 0.000000
vn 0.562000 0.827137 0.000000
vn 0.562000 0.827137 0.000000
vn 0.562000 0.827137 0.000000
vn 0.000000 0.000000 -1.000000
vn 0.000000 0.000000 -1.000000
vn -0.562000 -0.827137 0.000000
vn -0.562000 -0.827137 0.000000
vn -0.562000 -0.827137 0.000000
vn -0.562000 -0.827137 0.000000
vn -0.000000 0.000000 -1.000000
vn -0.000000 0.000000 -1.000000
vn 0.562000 0.827137 0.000000
vn 0.562000 0.827137 0.000000
vn 0.562000 0.827137 0.000000
vn 0.562000 0.827137 0.000000
vn 0.000000 0.000000 1.000000
vn 0.000000 0.000000 1.000000
vn 0.000000 0.000000 1.000000
vn 0.000000 0.000000 1.000000
vn 0.000000 0.000000 1.000000
vn 0.000000 0.000000 1.000000
vn 0.000000 0.000000 1.000000
vn 0.000000 0.000000 1.000000
vn 0.562000 0.827137 0.000000
vn 0.562000 0.827137 0.000000
vn 0.562000 0.827137 0.000000
vn 0.562000 0.827137 0.000000
vn -0.562000 -0.827137 0.000000
vn -0.562000 -0.827137 0.000000
vn -0.562000 -0.827137 0.000000
vn -0.562000 -0.827137 0.000000
vn 0.827137 -0.562000 0.000000
vn 0.827137 -0.562000 0.000000
vn 0.827137 -0.562000 0.000000
vn 0.827137 -0.562000 0.000000
vn -0.827137 0.562000 0.000000
vn -0.827137 0.562000 0.000000
vn -0.827137 0.562000 0.000000
vn -0.827137 0.562000 0.000000
vn 0.562000 0.827137 0.000000
vn 0.562000 0.827137 0.000000
vn 0.562000 0.827137 0.000000
vn 0.562000 0.827137 0.000000
vn 0.827137 -0.562000 0.000000
vn 0.827137 -0.562000 0.000000
vn 0.827137 -0.562000 0.000000
vn 0.827137 -0.562000 0.000000
vn -0.562000 -0.827137 0.000000
vn -0.562000 -0.827137 0.000000
vn -0.562000 -0.827137 0.000000
vn -0.562000 -0.827137 0.000000
vn -0.827137 0.562000 0.000000
vn -0.827137 0.562000 0.000000
vn -0.827137 0.562000 0.000000
vn -0.827137 0.562000 0.000000
vn 0.000000 0.000000 1.000000
vn 0.000000 0.000000 1.000000
vn 0.827137 -0.562000 0.000000
vn 0.827137 -0.562000 0.000000
vn 0.827137 -0.562000 0.000000
vn 0.827137 -0.562000 0.000000
vn 0.000000 0.000000 -1.000000
vn 0.000000 0.000000 -1.000000
vn 0.000000 0.000000 -1.000000
vn 0.000000 0.000000 -1.000000
vn -0.827137 0.562000 0.000000
vn -0.827137 0.562000 0.000000
vn -0.827137 0.562000 0.000000
vn -0.827137 0.562000 0.000000
vn 0.000000 0.000000 -1.000000
vn 0.000000 0.000000 -1.000000
vn 0.000000 0.000000 -1.000000
vn 0.000000 0.000000 -1.000000
vn 0.827137 -0.562000 0.000000
vn 0.827137 -0.562000 0.000000
vn 0.827137 -0.562000 0.000000
vn 0.827137 -0.562000 0.000000
vn 0.000000 0.000000 1.000000
vn 0.000000 0.000000 1.000000
vn -0.827137 0.562000 0.000000
vn -0.827137 0.562000 0.000000
vn -0.827137 0.562000 0.000000
vn -0.827137 0.562000 0.000000
vn -0.562000 -0.827137 0.000000
vn -0.562000 -0.827137 0.000000
vn -0.562000 -0.827137 0.000000
vn -0.562000 -0.827137 0.000000
vn 0.000000 0.000000 -1.000000
vn 0.000000 0.000000 -1.000000
vn 0.000000 0.000000 -1.000000
vn 0.000000 0.000000 -1.000000
vn 0.562000 0.827137 0.000000
vn 0.562000 0.827137 0.000000
vn 0.562000 0.827137 0.000000
vn 0.562000 0.827137 0.000000
vn 0.000000 0.000000 1.000000
vn 0.000000 0.000000 1.000000
vn -0.562000 -0.827137 0.000000
vn -0.562000 -0.827137 0.000000
vn -0.562000 -0.827137 0.000000
vn -0.562000 -0.827137 0.000000
vn 0.000000 0.000000 1.000000
vn 0.000000 0.000000 1.000000
vn 0.562000 0.827137 0.000000
vn 0.562000 0.827137 0.000000
vn 0.562000 0.827137 0.000000
vn 0.562000 0.827137 0.000000
vn 0.000000 0.000000 -1.000000
vn 0.000000 0.000000 -1.000000
vn 0.000000 0.000000 -1.000000
vn 0.000000 0.000000 -1.000000
s 1
g pCube47
f 1/127/1 2/121/2 13/124/3 14/128/4
s off
f 3/138/5 4/137/6 6/144/7 5/145/8
s 2
f 15/150/9 16/142/10 8/151/11 7/152/12
s off
f 7/152/13 8/151/14 2/155/15 1/156/16
f 2/121/17 8/122/18 16/123/19 13/124/20
f 7/132/21 1/127/22 14/128/23 15/133/24
s 1
f 10/131/25 9/129/26 4/137/27 3/138/28
s off
f 11/146/29 10/131/30 3/138/31 5/147/32
s 2
f 5/145/33 6/144/34 12/143/35 11/149/36
s off
f 9/129/37 12/136/38 6/144/39 4/137/40
s 1
f 14/128/4 13/124/3 9/129/26 10/131/25
s off
f 18/153/41 17/157/42 19/158/43 20/154/44
s 2
f 11/149/36 12/143/35 16/142/10 15/150/9
s off
f 22/126/45 21/134/46 23/135/47 24/130/48
f 15/133/49 14/128/50 17/140/51 18/141/52
s 1
f 14/128/4 10/131/25 19/139/53 17/140/54
s off
f 10/131/55 11/146/56 20/148/57 19/139/58
s 2
f 11/149/36 15/150/9 18/153/59 20/154/60
s off
f 13/124/61 16/123/62 21/125/63 22/126/64
s 2
f 16/142/10 12/143/35 23/135/65 21/134/66
s off
f 12/136/67 9/129/68 24/130/69 23/135/70
s 1
f 9/129/26 13/124/3 22/126/71 24/130/72
s 3
f 25/1/73 27/3/74 28/4/75 26/2/76
s off
f 33/67/77 36/68/78 35/112/79 34/69/80
f 37/114/81 40/51/82 39/56/83 38/57/84
f 42/58/85 44/71/86 43/111/87 41/72/88
f 45/113/89 48/62/90 47/63/91 46/53/92
s 3
f 27/3/74 33/67/93 34/69/94 28/4/75
s off
f 28/4/95 34/69/96 35/112/97 30/70/98
f 30/75/99 35/112/100 36/68/101 29/76/102
f 29/65/103 36/66/104 33/67/105 27/3/106
f 31/60/107 37/114/108 38/57/109 32/61/110
f 32/54/111 38/55/112 39/56/113 26/2/114
s 3
f 26/2/76 39/56/115 40/51/116 25/1/73
s off
f 25/1/117 40/51/118 37/114/119 31/52/120
f 26/2/121 42/58/122 41/59/123 32/54/124
f 32/77/125 41/72/126 43/111/127 30/78/128
f 30/70/129 43/111/130 44/71/131 28/4/132
s 3
f 28/4/75 44/71/133 42/58/134 26/2/76
s off
f 31/52/135 45/113/136 46/53/137 25/1/138
s 3
f 25/1/73 46/53/139 47/63/140 27/3/74
s off
f 27/3/141 47/63/142 48/64/143 29/65/144
f 29/73/145 48/62/146 45/113/147 31/74/148
s 4
f 49/5/149 50/6/150 52/8/151 51/7/152
s off
f 57/29/153 58/25/154 59/28/155 60/117/156
f 61/43/157 62/116/158 63/37/159 64/42/160
f 66/32/161 65/115/162 67/33/163 68/26/164
f 69/44/165 70/45/166 71/36/167 72/118/168
f 29/16/169 53/13/170 54/14/171 30/15/172
f 30/21/173 54/22/174 56/19/175 32/20/176
f 32/20/177 56/19/178 55/17/179 31/18/180
f 31/18/181 55/17/182 53/13/183 29/16/184
s 4
f 51/7/152 52/8/151 58/25/185 57/29/186
s off
f 52/8/187 54/23/188 59/24/189 58/25/190
f 54/34/191 53/35/192 60/117/193 59/28/194
f 53/30/195 51/7/196 57/29/197 60/117/198
f 55/47/199 56/48/200 62/116/201 61/43/202
f 56/31/203 50/6/204 63/37/205 62/116/206
s 4
f 50/6/150 49/5/149 64/42/207 63/37/208
s off
f 49/5/209 55/40/210 61/41/211 64/42/212
f 50/6/213 56/31/214 65/115/215 66/32/216
f 56/38/217 54/39/218 67/33/219 65/115/220
f 54/23/221 52/8/222 68/26/223 67/27/224
s 4
f 52/8/151 50/6/150 66/32/225 68/26/226
s off
f 55/40/227 49/5/228 70/45/229 69/46/230
s 4
f 49/5/149 51/7/152 71/36/231 70/45/232
s off
f 51/7/233 53/30/234 72/118/235 71/36/236
f 53/49/237 55/50/238 69/44/239 72/118/240
g default
v 1.308391 -4.021448 -2.072405
v 1.716005 -4.028703 -2.072405
v -2.300049 0.043898 -2.072405
v -1.885904 0.403344 -2.072405
v -2.300049 0.043898 -2.620782
v -1.885904 0.403344 -2.620782
v 1.308391 -4.021448 -2.620782
v 1.716005 -4.028703 -2.620782
v -1.264911 -0.312148 -2.072405
v -1.679055 -0.671594 -2.072405
v -1.679055 -0.671594 -2.620782
v -1.264911 -0.312148 -2.620782
v -0.923705 -0.705276 -2.072405
v -1.337849 -1.064722 -2.072405
v -1.337849 -1.064722 -2.620782
v -0.923705 -0.705276 -2.620782
v -4.301167 -3.910475 -2.072405
v -4.301167 -3.910475 -2.620782
v -4.649262 -3.904272 -2.072405
v -4.649262 -3.904272 -2.620782
v -0.221339 -0.095674 -2.620782
v -0.221339 -0.095674 -2.072405
v -0.562544 0.297454 -2.620782
v -0.562544 0.297454 -2.072405
vn -0.000000 0.000000 1.000000
vn -0.000000 0.000000 1.000000
vn -0.000000 0.000000 1.000000
vn -0.000000 0.000000 1.000000
vn -0.655473 0.755218 0.000000
vn -0.655473 0.755218 0.000000
vn -0.655473 0.755218 0.000000
vn -0.655473 0.755218 0.000000
vn -0.000000 0.000000 -1.000000
vn -0.000000 0.000000 -1.000000
vn -0.000000 0.000000 -1.000000
vn -0.000000 0.000000 -1.000000
vn -0.017796 -0.999842 0.000000
vn -0.017796 -0.999842 0.000000
vn -0.017796 -0.999842 0.000000
vn -0.017796 -0.999842 0.000000
vn 0.783052 0.621957 0.000000
vn 0.783052 0.621957 0.000000
vn 0.783052 0.621957 0.000000
vn 0.783052 0.621957 0.000000
vn -0.745147 -0.666900 0.000000
vn -0.745147 -0.666900 0.000000
vn -0.745147 -0.666900 0.000000
vn -0.745147 -0.666900 0.000000
vn -0.000000 0.000000 1.000000
vn -0.000000 0.000000 1.000000
vn 0.000000 0.000000 1.000000
vn 0.000000 0.000000 1.000000
vn -0.755218 -0.655473 0.000000
vn -0.755218 -0.655473 0.000000
vn -0.755218 -0.655473 0.000000
vn -0.755218 -0.655473 0.000000
vn 0.000000 0.000000 -1.000000
vn 0.000000 0.000000 -1.000000
vn -0.000000 0.000000 -1.000000
vn -0.000000 0.000000 -1.000000
vn 0.755219 0.655473 0.000000
vn 0.755219 0.655473 0.000000
vn 0.755219 0.655473 0.000000
vn 0.755219 0.655473 0.000000
vn -0.017817 -0.999841 0.000000
vn -0.017817 -0.999841 0.000000
vn -0.017817 -0.999841 0.000000
vn -0.017817 -0.999841 0.000000
vn 0.755219 0.655473 0.000000
vn 0.755219 0.655473 0.000000
vn 0.755219 0.655473 0.000000
vn 0.755219 0.655473 0.000000
vn 0.692654 -0.721270 0.000000
vn 0.692654 -0.721270 0.000000
vn 0.692654 -0.721270 0.000000
vn 0.692654 -0.721270 0.000000
vn 0.000000 0.000000 1.000000
vn 0.000000 0.000000 1.000000
vn -0.736368 0.676581 0.000000
vn -0.736368 0.676581 0.000000
vn -0.736368 0.676581 0.000000
vn -0.736368 0.676581 0.000000
vn 0.000000 0.000000 -1.000000
vn 0.000000 0.000000 -1.000000
vn 0.655473 -0.755218 0.000000
vn 0.655473 -0.755218 0.000000
vn 0.655473 -0.755218 0.000000
vn 0.655473 -0.755218 0.000000
vn 0.000000 0.000000 -1.000000
vn 0.000000 0.000000 -1.000000
vn -0.655473 0.755219 0.000000
vn -0.655473 0.755219 0.000000
vn -0.655473 0.755219 0.000000
vn -0.655473 0.755219 0.000000
vn 0.000000 0.000000 1.000000
vn 0.000000 0.000000 1.000000
s 1
g polySurface12 pCube46
f 73/84/241 74/79/242 85/11/243 86/12/244
s off
f 75/97/245 76/95/246 78/119/247 77/96/248
s 2
f 87/104/249 88/94/250 80/102/251 79/103/252
s off
f 79/103/253 80/102/254 74/107/255 73/108/256
f 74/79/257 80/80/258 88/81/259 85/11/260
f 79/85/261 73/84/262 86/12/263 87/86/264
s 1
f 82/10/265 81/9/266 76/95/267 75/97/268
s off
f 83/99/269 82/10/270 75/97/271 77/98/272
s 2
f 77/96/273 78/119/274 84/93/275 83/101/276
s off
f 81/9/277 84/89/278 78/119/279 76/95/280
s 1
f 86/12/244 85/11/243 81/9/266 82/10/265
s off
f 90/105/281 89/109/282 91/110/283 92/106/284
s 2
f 83/101/276 84/93/275 88/94/250 87/104/249
s off
f 94/83/285 93/87/286 95/120/287 96/88/288
f 87/86/289 86/12/290 89/91/291 90/92/292
s 1
f 86/12/244 82/10/265 91/90/293 89/91/294
s off
f 82/10/295 83/99/296 92/100/297 91/90/298
s 2
f 83/101/276 87/104/249 90/105/299 92/106/300
s off
f 85/11/301 88/81/302 93/82/303 94/83/304
s 2
f 88/94/250 84/93/275 95/120/305 93/87/306
s off
f 84/89/307 81/9/308 96/88/309 95/120/310
s 1
f 81/9/266 85/11/243 94/83/311 96/88/312
