# This file uses centimeters as units for non-parametric coordinates.

mtllib helecho.mtl
g default
v 0.081446 -2.204262 -0.002510
v 0.923096 -2.204262 -0.002510
v -0.844447 -1.781420 -4.743602
v 1.848987 -1.781420 -4.743602
v -0.603981 -0.286885 -3.577844
v 1.608520 -0.286885 -3.577844
v -0.368491 0.028946 -2.333778
v 1.373032 0.028946 -2.333778
v -0.104212 -0.266857 -1.136383
v 1.108753 -0.266857 -1.136383
v 0.887999 -2.204262 0.019398
v 0.914290 -2.204262 0.860637
v 5.597856 -1.781420 -1.054142
v 5.681990 -1.781420 1.637978
v 4.440177 -0.286885 -0.777378
v 4.509289 -0.286885 1.434043
v 3.204075 0.028946 -0.503142
v 3.258475 0.028946 1.237532
v 2.015519 -0.266857 -0.201589
v 2.053409 -0.266857 1.010784
v 0.924649 -2.204262 0.884247
v 0.082999 -2.204262 0.884247
v 1.850543 -1.781420 5.625339
v -0.842891 -1.781420 5.625339
v 1.610076 -0.286885 4.459580
v -0.602425 -0.286885 4.459580
v 1.374586 0.028946 3.215515
v -0.366937 0.028946 3.215515
v 1.110307 -0.266857 2.018120
v -0.102657 -0.266857 2.018120
v 0.074885 -2.204262 0.867542
v 0.074885 -2.204262 0.025891
v -4.666207 -1.781420 1.793435
v -4.666207 -1.781420 -0.899999
v -3.500449 -0.286885 1.552969
v -3.500449 -0.286885 -0.659532
v -2.256383 0.028946 1.317479
v -2.256383 0.028946 -0.424045
v -1.058988 -0.266857 1.053200
v -1.058988 -0.266857 -0.159765
v -0.175741 -2.015037 0.383555
v 0.529140 -2.015037 -0.236200
v -4.442315 -1.570562 -2.905314
v -2.186567 -1.570562 -4.888645
v -3.382510 0.096114 -2.106062
v -1.529543 0.096114 -3.735254
v -2.269210 0.448321 -1.237564
v -0.810686 0.448321 -2.519948
v -1.166165 0.118448 -0.429351
v -0.150309 0.118448 -1.322526
v 0.515878 -2.015037 -0.192008
v 1.157350 -2.015037 0.493170
v 3.669868 -1.570562 -4.559235
v 5.722694 -1.570562 -2.366540
v 2.904111 0.096114 -3.474980
v 4.590389 0.096114 -1.673809
v 2.070812 0.448321 -2.335094
v 3.398131 0.448321 -0.917340
v 1.297450 0.118448 -1.207342
v 2.221922 0.118448 -0.219881
v 1.183411 -2.015037 0.505315
v 0.478530 -2.015037 1.125070
v 5.449985 -1.570562 3.794184
v 3.194237 -1.570562 5.777515
v 4.390179 0.096114 2.994933
v 2.537212 0.096114 4.624125
v 3.276880 0.448321 2.126434
v 1.818356 0.448321 3.408818
v 2.173835 0.118448 1.318221
v 1.157979 0.118448 2.211397
v 0.459433 -2.015037 1.117054
v -0.160323 -2.015037 0.412174
v -2.829437 -1.570562 5.383628
v -4.812767 -1.570562 3.127881
v -2.030185 0.096114 4.323823
v -3.659377 0.096114 2.470856
v -1.161687 0.448321 3.210524
v -2.444071 0.448321 1.752000
v -0.353473 0.118448 2.107479
v -1.246649 0.118448 1.091622
vt 0.330855 0.498746
vt 0.687192 0.499767
vt 0.734629 0.748255
vt 0.281923 0.746958
vt 0.385649 0.259868
vt 0.633836 0.260579
vt 0.783131 0.981113
vt 0.232020 0.979534
vt 0.424318 0.020870
vt 0.596530 0.021363
vt 0.334086 0.500630
vt 0.690421 0.498889
vt 0.739879 0.747002
vt 0.287177 0.749212
vt 0.386935 0.261334
vt 0.635120 0.260122
vt 0.790275 0.979477
vt 0.239169 0.982168
vt 0.423761 0.022044
vt 0.595972 0.021203
vt 0.330311 0.500138
vt 0.686649 0.500849
vt 0.734312 0.749296
vt 0.281605 0.748392
vt 0.384886 0.261212
vt 0.633075 0.261707
vt 0.783026 0.982112
vt 0.231915 0.981012
vt 0.423349 0.022181
vt 0.595561 0.022524
vt 0.330666 0.498910
vt 0.687005 0.498880
vt 0.735211 0.747226
vt 0.282503 0.747264
vt 0.384720 0.259870
vt 0.632909 0.259850
vt 0.784434 0.979940
vt 0.233321 0.979987
vt 0.422689 0.020760
vt 0.594901 0.020745
vt 0.331061 0.495990
vt 0.684764 0.495117
vt 0.733215 0.747669
vt 0.283856 0.748778
vt 0.384136 0.252667
vt 0.630489 0.252059
vt 0.782638 0.984314
vt 0.235602 0.985664
vt 0.421274 0.022284
vt 0.592213 0.021862
vt 0.331108 0.494233
vt 0.684811 0.493189
vt 0.733384 0.745717
vt 0.284026 0.747044
vt 0.384065 0.250884
vt 0.630418 0.250157
vt 0.782922 0.982339
vt 0.235886 0.983953
vt 0.421092 0.020484
vt 0.592031 0.019979
vt 0.330339 0.496702
vt 0.684035 0.494337
vt 0.733551 0.746682
vt 0.284201 0.749687
vt 0.382387 0.253157
vt 0.628735 0.251510
vt 0.783973 0.983117
vt 0.236947 0.986775
vt 0.418553 0.022620
vt 0.589489 0.021476
vt 0.329533 0.494212
vt 0.683237 0.493742
vt 0.731401 0.746349
vt 0.282041 0.746946
vt 0.382885 0.250949
vt 0.629238 0.250621
vt 0.780554 0.983050
vt 0.233517 0.983777
vt 0.420286 0.020609
vt 0.591225 0.020382
vn 0.000000 -0.759241 0.650810
vn 0.000000 -0.615039 0.788497
vn 0.000000 -0.615039 0.788497
vn 0.000000 -0.759241 0.650810
vn 0.000000 -0.997240 0.074248
vn 0.000000 -0.997240 0.074248
vn 0.000000 -0.793979 -0.607945
vn 0.000000 -0.793979 -0.607945
vn 0.000000 -0.505107 -0.863057
vn 0.000000 -0.505107 -0.863057
vn -0.650492 -0.759241 0.020329
vn -0.788112 -0.615039 0.024630
vn -0.788112 -0.615039 0.024630
vn -0.650492 -0.759241 0.020329
vn -0.074212 -0.997240 0.002319
vn -0.074212 -0.997240 0.002319
vn 0.607648 -0.793979 -0.018990
vn 0.607648 -0.793979 -0.018990
vn 0.862636 -0.505107 -0.026959
vn 0.862636 -0.505107 -0.026959
vn 0.000000 -0.759241 -0.650810
vn 0.000000 -0.615039 -0.788497
vn 0.000000 -0.615039 -0.788497
vn 0.000000 -0.759241 -0.650810
vn 0.000000 -0.997240 -0.074248
vn 0.000000 -0.997240 -0.074248
vn 0.000000 -0.793979 0.607945
vn 0.000000 -0.793979 0.607945
vn 0.000000 -0.505107 0.863057
vn 0.000000 -0.505107 0.863057
vn 0.650810 -0.759241 0.000000
vn 0.788497 -0.615039 0.000000
vn 0.788497 -0.615039 0.000000
vn 0.650810 -0.759241 0.000000
vn 0.074248 -0.997240 0.000000
vn 0.074248 -0.997240 0.000000
vn -0.607945 -0.793979 0.000000
vn -0.607945 -0.793979 0.000000
vn -0.863057 -0.505107 0.000000
vn -0.863057 -0.505107 0.000000
vn 0.429732 -0.759240 0.488758
vn 0.520648 -0.615039 0.592160
vn 0.520648 -0.615038 0.592160
vn 0.429732 -0.759241 0.488758
vn 0.049026 -0.997240 0.055760
vn 0.049026 -0.997240 0.055760
vn -0.398846 -0.796958 -0.453629
vn -0.398847 -0.796958 -0.453629
vn -0.568032 -0.509858 -0.646053
vn -0.568032 -0.509858 -0.646053
vn -0.475095 -0.759241 0.444790
vn -0.575608 -0.615039 0.538891
vn -0.575608 -0.615039 0.538891
vn -0.475095 -0.759241 0.444790
vn -0.054202 -0.997240 0.050744
vn -0.054202 -0.997240 0.050744
vn 0.440949 -0.796958 -0.412822
vn 0.440949 -0.796958 -0.412822
vn 0.627994 -0.509858 -0.587936
vn 0.627994 -0.509858 -0.587936
vn -0.429732 -0.759241 -0.488758
vn -0.520648 -0.615039 -0.592160
vn -0.520648 -0.615039 -0.592160
vn -0.429732 -0.759241 -0.488757
vn -0.049026 -0.997240 -0.055760
vn -0.049026 -0.997240 -0.055760
vn 0.398846 -0.796958 0.453629
vn 0.398846 -0.796958 0.453629
vn 0.568032 -0.509858 0.646053
vn 0.568032 -0.509858 0.646053
vn 0.488758 -0.759241 -0.429732
vn 0.592160 -0.615039 -0.520648
vn 0.592160 -0.615039 -0.520648
vn 0.488757 -0.759241 -0.429732
vn 0.055760 -0.997240 -0.049026
vn 0.055760 -0.997240 -0.049026
vn -0.453629 -0.796958 0.398846
vn -0.453629 -0.796958 0.398846
vn -0.646053 -0.509858 0.568032
vn -0.646053 -0.509858 0.568032
s 1
g pPlane7
usemtl lambert2SG
f 5/4/1 3/8/2 4/7/3 6/3/4
f 7/1/5 5/4/1 6/3/4 8/2/6
f 9/5/7 7/1/5 8/2/6 10/6/8
f 1/9/9 9/5/7 10/6/8 2/10/10
s 2
f 15/14/11 13/18/12 14/17/13 16/13/14
f 17/11/15 15/14/11 16/13/14 18/12/16
f 19/15/17 17/11/15 18/12/16 20/16/18
f 11/19/19 19/15/17 20/16/18 12/20/20
s 3
f 25/24/21 23/28/22 24/27/23 26/23/24
f 27/21/25 25/24/21 26/23/24 28/22/26
f 29/25/27 27/21/25 28/22/26 30/26/28
f 21/29/29 29/25/27 30/26/28 22/30/30
s 4
f 35/34/31 33/38/32 34/37/33 36/33/34
f 37/31/35 35/34/31 36/33/34 38/32/36
f 39/35/37 37/31/35 38/32/36 40/36/38
f 31/39/39 39/35/37 40/36/38 32/40/40
s 5
f 45/44/41 43/48/42 44/47/43 46/43/44
f 47/41/45 45/44/41 46/43/44 48/42/46
f 49/45/47 47/41/45 48/42/46 50/46/48
f 41/49/49 49/45/47 50/46/48 42/50/50
s 6
f 55/54/51 53/58/52 54/57/53 56/53/54
f 57/51/55 55/54/51 56/53/54 58/52/56
f 59/55/57 57/51/55 58/52/56 60/56/58
f 51/59/59 59/55/57 60/56/58 52/60/60
s 7
f 65/64/61 63/68/62 64/67/63 66/63/64
f 67/61/65 65/64/61 66/63/64 68/62/66
f 69/65/67 67/61/65 68/62/66 70/66/68
f 61/69/69 69/65/67 70/66/68 62/70/70
s 8
f 75/74/71 73/78/72 74/77/73 76/73/74
f 77/71/75 75/74/71 76/73/74 78/72/76
f 79/75/77 77/71/75 78/72/76 80/76/78
f 71/79/79 79/75/77 80/76/78 72/80/80
g default
v 0.081446 -1.773058 -0.002510
v 0.923096 -1.773058 -0.002510
v -0.844447 -1.350216 -4.743602
v 1.848987 -1.350216 -4.743602
v -0.603981 0.144319 -3.577844
v 1.608520 0.144319 -3.577844
v -0.368491 0.460149 -2.333778
v 1.373032 0.460149 -2.333778
v -0.104212 0.164346 -1.136383
v 1.108753 0.164346 -1.136383
v 0.887999 -1.773058 0.019398
v 0.914290 -1.773058 0.860637
v 5.597856 -1.350216 -1.054142
v 5.681990 -1.350216 1.637978
v 4.440177 0.144319 -0.777378
v 4.509289 0.144319 1.434043
v 3.204075 0.460149 -0.503142
v 3.258475 0.460149 1.237532
v 2.015519 0.164346 -0.201589
v 2.053409 0.164346 1.010784
v 0.924649 -1.773058 0.884247
v 0.082999 -1.773058 0.884247
v 1.850543 -1.350216 5.625339
v -0.842891 -1.350216 5.625339
v 1.610076 0.144319 4.459580
v -0.602425 0.144319 4.459580
v 1.374586 0.460149 3.215515
v -0.366937 0.460149 3.215515
v 1.110307 0.164346 2.018120
v -0.102657 0.164346 2.018120
v 0.074885 -1.773058 0.867542
v 0.074885 -1.773058 0.025891
v -4.666207 -1.350216 1.793435
v -4.666207 -1.350216 -0.899999
v -3.500449 0.144319 1.552969
v -3.500449 0.144319 -0.659532
v -2.256383 0.460149 1.317479
v -2.256383 0.460149 -0.424045
v -1.058988 0.164346 1.053200
v -1.058988 0.164346 -0.159765
v -0.175741 -1.583833 0.383555
v 0.529140 -1.583833 -0.236200
v -4.442315 -1.139359 -2.905314
v -2.186567 -1.139359 -4.888645
v -3.382510 0.527317 -2.106062
v -1.529543 0.527317 -3.735254
v -2.269210 0.879524 -1.237564
v -0.810686 0.879524 -2.519948
v -1.166165 0.549651 -0.429351
v -0.150309 0.549651 -1.322526
v 0.515878 -1.583833 -0.192008
v 1.157350 -1.583833 0.493170
v 3.669868 -1.139359 -4.559235
v 5.722694 -1.139359 -2.366540
v 2.904111 0.527317 -3.474980
v 4.590389 0.527317 -1.673809
v 2.070812 0.879524 -2.335094
v 3.398131 0.879524 -0.917340
v 1.297450 0.549651 -1.207342
v 2.221922 0.549651 -0.219881
v 1.183411 -1.583833 0.505315
v 0.478530 -1.583833 1.125070
v 5.449985 -1.139359 3.794184
v 3.194237 -1.139359 5.777515
v 4.390179 0.527317 2.994933
v 2.537212 0.527317 4.624125
v 3.276880 0.879524 2.126434
v 1.818356 0.879524 3.408818
v 2.173835 0.549651 1.318221
v 1.157979 0.549651 2.211397
v 0.459433 -1.583833 1.117054
v -0.160323 -1.583833 0.412174
v -2.829437 -1.139359 5.383628
v -4.812767 -1.139359 3.127881
v -2.030185 0.527317 4.323823
v -3.659377 0.527317 2.470856
v -1.161687 0.879524 3.210524
v -2.444071 0.879524 1.752000
v -0.353473 0.549651 2.107479
v -1.246649 0.549651 1.091622
vt 0.330855 0.498746
vt 0.687192 0.499767
vt 0.734629 0.748255
vt 0.281923 0.746958
vt 0.385649 0.259868
vt 0.633836 0.260579
vt 0.783131 0.981113
vt 0.232020 0.979534
vt 0.424318 0.020870
vt 0.596530 0.021363
vt 0.334086 0.500630
vt 0.690421 0.498889
vt 0.739879 0.747002
vt 0.287177 0.749212
vt 0.386935 0.261334
vt 0.635120 0.260122
vt 0.790275 0.979477
vt 0.239169 0.982168
vt 0.423761 0.022044
vt 0.595972 0.021203
vt 0.330311 0.500138
vt 0.686649 0.500849
vt 0.734312 0.749296
vt 0.281605 0.748392
vt 0.384886 0.261212
vt 0.633075 0.261707
vt 0.783026 0.982112
vt 0.231915 0.981012
vt 0.423349 0.022181
vt 0.595561 0.022524
vt 0.330666 0.498910
vt 0.687005 0.498880
vt 0.735211 0.747226
vt 0.282503 0.747264
vt 0.384720 0.259870
vt 0.632909 0.259850
vt 0.784434 0.979940
vt 0.233321 0.979987
vt 0.422689 0.020760
vt 0.594901 0.020745
vt 0.331061 0.495990
vt 0.684764 0.495117
vt 0.733215 0.747669
vt 0.283856 0.748778
vt 0.384136 0.252667
vt 0.630489 0.252059
vt 0.782638 0.984314
vt 0.235602 0.985664
vt 0.421274 0.022284
vt 0.592213 0.021862
vt 0.331108 0.494233
vt 0.684811 0.493189
vt 0.733384 0.745717
vt 0.284026 0.747044
vt 0.384065 0.250884
vt 0.630418 0.250157
vt 0.782922 0.982339
vt 0.235886 0.983953
vt 0.421092 0.020484
vt 0.592031 0.019979
vt 0.330339 0.496702
vt 0.684035 0.494337
vt 0.733551 0.746682
vt 0.284201 0.749687
vt 0.382387 0.253157
vt 0.628735 0.251510
vt 0.783973 0.983117
vt 0.236947 0.986775
vt 0.418553 0.022620
vt 0.589489 0.021476
vt 0.329533 0.494212
vt 0.683237 0.493742
vt 0.731401 0.746349
vt 0.282041 0.746946
vt 0.382885 0.250949
vt 0.629238 0.250621
vt 0.780554 0.983050
vt 0.233517 0.983777
vt 0.420286 0.020609
vt 0.591225 0.020382
vn 0.000000 0.759241 -0.650810
vn 0.000000 0.759241 -0.650810
vn 0.000000 0.615039 -0.788497
vn 0.000000 0.615039 -0.788497
vn 0.000000 0.997240 -0.074248
vn 0.000000 0.997240 -0.074248
vn 0.000000 0.793979 0.607945
vn 0.000000 0.793979 0.607945
vn 0.000000 0.505107 0.863057
vn 0.000000 0.505107 0.863057
vn 0.650492 0.759241 -0.020329
vn 0.650492 0.759241 -0.020329
vn 0.788112 0.615039 -0.024630
vn 0.788112 0.615039 -0.024630
vn 0.074212 0.997240 -0.002319
vn 0.074212 0.997240 -0.002319
vn -0.607648 0.793979 0.018990
vn -0.607648 0.793979 0.018990
vn -0.862636 0.505107 0.026959
vn -0.862636 0.505107 0.026959
vn 0.000000 0.759241 0.650810
vn 0.000000 0.759241 0.650810
vn 0.000000 0.615039 0.788497
vn 0.000000 0.615039 0.788497
vn 0.000000 0.997240 0.074248
vn 0.000000 0.997240 0.074248
vn 0.000000 0.793979 -0.607945
vn 0.000000 0.793979 -0.607945
vn 0.000000 0.505107 -0.863057
vn 0.000000 0.505107 -0.863057
vn -0.650810 0.759241 0.000000
vn -0.650810 0.759241 0.000000
vn -0.788497 0.615039 0.000000
vn -0.788497 0.615039 0.000000
vn -0.074248 0.997240 0.000000
vn -0.074248 0.997240 0.000000
vn 0.607945 0.793979 0.000000
vn 0.607945 0.793979 0.000000
vn 0.863057 0.505107 0.000000
vn 0.863057 0.505107 0.000000
vn -0.429732 0.759240 -0.488758
vn -0.429732 0.759241 -0.488758
vn -0.520648 0.615039 -0.592160
vn -0.520648 0.615039 -0.592160
vn -0.049026 0.997240 -0.055760
vn -0.049026 0.997240 -0.055760
vn 0.398846 0.796958 0.453629
vn 0.398847 0.796958 0.453629
vn 0.568032 0.509858 0.646053
vn 0.568032 0.509858 0.646053
vn 0.475095 0.759241 -0.444790
vn 0.475095 0.759241 -0.444790
vn 0.575608 0.615039 -0.538891
vn 0.575608 0.615039 -0.538891
vn 0.054202 0.997240 -0.050744
vn 0.054202 0.997240 -0.050744
vn -0.440949 0.796958 0.412822
vn -0.440949 0.796958 0.412822
vn -0.627994 0.509858 0.587936
vn -0.627994 0.509858 0.587936
vn 0.429732 0.759241 0.488758
vn 0.429732 0.759241 0.488757
vn 0.520648 0.615039 0.592160
vn 0.520648 0.615039 0.592160
vn 0.049026 0.997240 0.055760
vn 0.049026 0.997240 0.055760
vn -0.398847 0.796958 -0.453629
vn -0.398846 0.796958 -0.453629
vn -0.568032 0.509858 -0.646053
vn -0.568032 0.509858 -0.646053
vn -0.488758 0.759240 0.429732
vn -0.488757 0.759241 0.429732
vn -0.592160 0.615039 0.520648
vn -0.592160 0.615039 0.520648
vn -0.055760 0.997240 0.049026
vn -0.055760 0.997240 0.049026
vn 0.453629 0.796958 -0.398846
vn 0.453629 0.796958 -0.398847
vn 0.646053 0.509858 -0.568032
vn 0.646053 0.509858 -0.568032
s 1
g pPlane8
usemtl lambert2SG
f 85/84/81 86/83/82 84/87/83 83/88/84
f 87/81/85 88/82/86 86/83/82 85/84/81
f 89/85/87 90/86/88 88/82/86 87/81/85
f 81/89/89 82/90/90 90/86/88 89/85/87
s 2
f 95/94/91 96/93/92 94/97/93 93/98/94
f 97/91/95 98/92/96 96/93/92 95/94/91
f 99/95/97 100/96/98 98/92/96 97/91/95
f 91/99/99 92/100/100 100/96/98 99/95/97
s 3
f 105/104/101 106/103/102 104/107/103 103/108/104
f 107/101/105 108/102/106 106/103/102 105/104/101
f 109/105/107 110/106/108 108/102/106 107/101/105
f 101/109/109 102/110/110 110/106/108 109/105/107
s 4
f 115/114/111 116/113/112 114/117/113 113/118/114
f 117/111/115 118/112/116 116/113/112 115/114/111
f 119/115/117 120/116/118 118/112/116 117/111/115
f 111/119/119 112/120/120 120/116/118 119/115/117
s 5
f 125/124/121 126/123/122 124/127/123 123/128/124
f 127/121/125 128/122/126 126/123/122 125/124/121
f 129/125/127 130/126/128 128/122/126 127/121/125
f 121/129/129 122/130/130 130/126/128 129/125/127
s 6
f 135/134/131 136/133/132 134/137/133 133/138/134
f 137/131/135 138/132/136 136/133/132 135/134/131
f 139/135/137 140/136/138 138/132/136 137/131/135
f 131/139/139 132/140/140 140/136/138 139/135/137
s 7
f 145/144/141 146/143/142 144/147/143 143/148/144
f 147/141/145 148/142/146 146/143/142 145/144/141
f 149/145/147 150/146/148 148/142/146 147/141/145
f 141/149/149 142/150/150 150/146/148 149/145/147
s 8
f 155/154/151 156/153/152 154/157/153 153/158/154
f 157/151/155 158/152/156 156/153/152 155/154/151
f 159/155/157 160/156/158 158/152/156 157/151/155
f 151/159/159 152/160/160 160/156/158 159/155/157
